<svg width="1920" height="1056" viewBox="0 0 1920 1056" fill="none" xmlns="http://www.w3.org/2000/svg">
<path d="M-1.0001 5.99964C-1.0001 5.99964 81.4999 -26.4914 179 64.9996C244.4 126.366 245 169.1 268.261 273.148C296.761 400.636 383.579 590.162 600 499C715.884 450.186 706.1 582.652 637 714C593.206 797.24 503.141 888.367 480 906C321.217 1026.99 86.3329 1014.28 -2.0001 991C-89.9941 967.809 -21.9931 10.4996 -1.0001 5.99964Z" fill="#0898E7"/>
<path d="M1926 246C1926 246 1618.42 162.563 1393 455C1288.82 590.158 1266.5 679.01 1271 823C1277.75 1038.96 1311.92 1091.71 1488 1033C1582.47 1001.5 1683 963.999 1683 963.999C1739 941.999 1900.01 902.08 1927 907C1953.99 911.92 1981.48 247.5 1926 246Z" fill="#FAAE1B"/>
</svg>
